<svg xmlns="http://www.w3.org/2000/svg" xmlns:xlink="http://www.w3.org/1999/xlink" width="287.839" height="76.115" viewBox="0 0 287.839 76.115">
  <defs>
    <clipPath id="clip-path">
      <rect id="Rectangle_4" data-name="Rectangle 4" width="287.839" height="76.115" fill="none"/>
    </clipPath>
  </defs>
  <g id="Group_3" data-name="Group 3" transform="translate(-276 137)">
    <path id="Path_1" data-name="Path 1" d="M30.459,13.607h8.563l-12.67,18.97,8.421,12.668h5.238v6.371H30.459L13.611,32.506Z" transform="translate(274.098 -138.901)" fill="#fff"/>
    <path id="Path_2" data-name="Path 2" d="M61.1,13.607H52.526L65.2,32.577,56.779,45.245h-5.24v6.371H61.1l16.846-19.11Z" transform="translate(268.8 -138.901)" fill="#fff"/>
    <path id="Path_3" data-name="Path 3" d="M49.4,42.715V34.289H56.7l-5.241-8.425H40.981l-5.24,8.425h7.292v8.426Z" transform="translate(271.007 -140.613)" fill="#fff"/>
    <g id="Group_2" data-name="Group 2" transform="translate(276 -137)">
      <g id="Group_1" data-name="Group 1" transform="translate(0 0)" clip-path="url(#clip-path)">
        <path id="Path_4" data-name="Path 4" d="M73.232,50.843A4.766,4.766,0,1,0,78,46.073a4.768,4.768,0,0,0-4.765,4.77m.478,0A4.289,4.289,0,1,1,78,55.132a4.3,4.3,0,0,1-4.287-4.289" transform="translate(-10.231 -6.436)" fill="#fff"/>
        <path id="Path_5" data-name="Path 5" d="M76.511,48.858h2.3a2.493,2.493,0,0,1,.933.149,1.011,1.011,0,0,1,.706,1.02,1.037,1.037,0,0,1-.187.634,1.21,1.21,0,0,1-.528.4,1.045,1.045,0,0,1,.44.276.831.831,0,0,1,.169.541l.025.573a1.407,1.407,0,0,0,.052.377.361.361,0,0,0,.215.268v.094H79.8a.683.683,0,0,1-.054-.145,2.15,2.15,0,0,1-.028-.341l-.057-.723a.6.6,0,0,0-.354-.57,1.742,1.742,0,0,0-.6-.076H77.195v1.853h-.684Zm2.228,1.986a1.4,1.4,0,0,0,.745-.164.738.738,0,0,0-.108-1.22,1.449,1.449,0,0,0-.545-.089H77.195v1.473Z" transform="translate(-10.689 -6.825)" fill="#fff"/>
        <path id="Path_6" data-name="Path 6" d="M178.817,31.838v5.124h3.422V41.75h-6.623V25.329h6.623v3.21h6.708V20.2H168.912V46.883h20.035V31.838Z" transform="translate(-23.597 -2.822)" fill="#fff"/>
        <path id="Path_7" data-name="Path 7" d="M127.144,43.437l-8.235-9.9,8.235-9.9ZM122.193,20.2l-8.2,9.859V20.2h-6.7V46.884h6.7V37l8.218,9.88h11.642V20.2Z" transform="translate(-14.988 -2.821)" fill="#fff"/>
        <path id="Path_8" data-name="Path 8" d="M155.259,20.2V33.314L148.644,20.19V20.2h-6.709V46.883h6.709V33.759l6.613,13.117,0-.029v.036h6.705V20.2Z" transform="translate(-19.828 -2.82)" fill="#fff"/>
        <path id="Path_9" data-name="Path 9" d="M290.794,20.2l-4.92,9.73-4.9-9.73H270.886V33.314L264.268,20.19V20.2h-6.711V46.883h6.711V33.759l6.618,13.117v.007h6.71V27.109l4.886,9.665V46.883h6.706V36.954L297.667,20.2Z" transform="translate(-35.981 -2.82)" fill="#fff"/>
        <path id="Path_10" data-name="Path 10" d="M247.234,33.266a15.028,15.028,0,0,0-22-13.345h-25.5v5.13h6.7V46.606h6.708V25.051h6.444a15.039,15.039,0,0,0,.051,16.485h-1.592v5h11.62V41.5h-1.971l-4.539-8.279,4.539-8.281h9.068l4.53,8.281-4.53,8.279h-2.149v5.034h11.66v-5h-1.518a14.972,14.972,0,0,0,2.479-8.27" transform="translate(-27.903 -2.543)" fill="#fff"/>
        <path id="Path_11" data-name="Path 11" d="M179.045,61.432a.49.49,0,0,1-.039.16,1.087,1.087,0,0,1-.109.2,1.467,1.467,0,0,1-.151.194.492.492,0,0,1-.18.122,2.1,2.1,0,0,1-.353.118c-.12.023-.257.048-.423.075-.435.073-.859.136-1.277.183s-.812.088-1.178.118-.715.054-1.019.063-.568.019-.78.019h-1.469c-.127,0-.25-.009-.369-.012-.015.135-.026.3-.037.488s-.026.383-.04.58-.031.39-.045.575a4.419,4.419,0,0,1-.057.462c.13.01.278.019.451.025s.34,0,.5,0c.23,0,.461-.007.691-.022s.418-.026.571-.037c.076-.007.192-.016.356-.023s.329-.018.513-.03.36-.026.531-.044a3.394,3.394,0,0,0,.407-.056c.1-.034.186-.065.267-.1a2.427,2.427,0,0,1,.244-.067,1.419,1.419,0,0,1,.238-.04c.083-.007.17-.014.267-.014a.762.762,0,0,1,.319.061.573.573,0,0,1,.2.17.659.659,0,0,1,.1.244,1.392,1.392,0,0,1,.028.283.386.386,0,0,1-.117.3.855.855,0,0,1-.286.192,1.86,1.86,0,0,1-.357.115c-.126.026-.235.048-.323.061a2.936,2.936,0,0,1-.428.049c-.207.02-.444.035-.714.054s-.555.034-.854.051-.583.03-.853.04-.508.02-.722.028-.359.011-.451.011a2.267,2.267,0,0,0-.4.033c-.122.019-.252.042-.386.076a4.238,4.238,0,0,0-.136.631,6.536,6.536,0,0,1-.148.71c-.027.1-.05.193-.074.3s-.054.194-.076.291-.037.172-.052.247-.022.138-.028.19c.1,0,.214,0,.344-.01s.265-.009.409-.017.283-.015.428-.028.282-.022.407-.033c.337-.021.625-.045.862-.063l.646-.049c.191-.013.367-.03.531-.045s.341-.036.53-.059c.1-.013.218-.025.358-.038s.282-.025.431-.038.3-.031.448-.047a2.97,2.97,0,0,0,.408-.073c.076-.016.153-.037.231-.061s.157-.052.236-.076a2.286,2.286,0,0,1,.246-.06,1.032,1.032,0,0,1,.249-.027.771.771,0,0,1,.29.054.817.817,0,0,1,.243.153.772.772,0,0,1,.171.232.733.733,0,0,1,.065.294.353.353,0,0,1-.071.157,1.089,1.089,0,0,1-.183.2,1.226,1.226,0,0,1-.28.186,1.281,1.281,0,0,1-.353.118c-.42.068-.835.123-1.26.16s-.879.083-1.386.141c-.367.038-.728.077-1.091.111s-.7.071-1.015.107-.588.065-.825.089-.408.051-.522.072a3.339,3.339,0,0,0-.348.071c-.125.029-.248.059-.373.088s-.243.052-.357.072a1.559,1.559,0,0,1-.306.028h-.015a1.816,1.816,0,0,1-.442-.048.678.678,0,0,1-.323-.183.856.856,0,0,1-.193-.35,1.936,1.936,0,0,1-.069-.557A2.248,2.248,0,0,1,169,68.4c.053-.213.113-.467.178-.761s.13-.542.192-.776.121-.467.176-.687.1-.446.147-.665a6.008,6.008,0,0,0,.1-.712c0-.03.011-.1.022-.2s.022-.238.034-.387.023-.312.036-.482.029-.324.042-.478.028-.279.034-.391.012-.179.012-.209a.644.644,0,0,0-.016-.122.691.691,0,0,1-.015-.125.937.937,0,0,1,.06-.308,1.585,1.585,0,0,1,.189-.344.854.854,0,0,1,.223-.184,2.207,2.207,0,0,1,.341-.171,2.564,2.564,0,0,1,.368-.129,1.412,1.412,0,0,1,.323-.046,1.835,1.835,0,0,1,.244.024c.111.014.228.034.349.052s.234.042.342.058a1.985,1.985,0,0,0,.237.024c.108,0,.254,0,.442.005s.392.007.616.007c.414,0,.833-.012,1.255-.042s.853-.07,1.288-.127c.194-.032.376-.068.545-.112l.5-.132c.165-.039.329-.075.493-.108a3,3,0,0,1,.523-.045.759.759,0,0,1,.272.05.887.887,0,0,1,.243.144.682.682,0,0,1,.182.194.4.4,0,0,1,.072.225" transform="translate(-23.597 -8.496)" fill="#fff"/>
        <path id="Path_12" data-name="Path 12" d="M193.957,66.055a.739.739,0,0,1-.05.25,2.763,2.763,0,0,1-.121.273c-.051.088-.107.167-.167.252s-.117.139-.168.194c-.151.162-.317.336-.507.516s-.379.363-.585.54-.41.349-.624.512a5.463,5.463,0,0,1-.638.427c-.166.1-.324.188-.477.271a4.98,4.98,0,0,1-.477.219,3.045,3.045,0,0,1-.515.153,2.968,2.968,0,0,1-.6.056,1.95,1.95,0,0,1-.884-.184,1.723,1.723,0,0,1-.571-.486,2.284,2.284,0,0,1-.336-.694,5.935,5.935,0,0,1-.18-.814,5.724,5.724,0,0,0-.207-.913c-.073-.227-.168-.336-.274-.336a.689.689,0,0,0-.274.055,1.25,1.25,0,0,0-.341.249,5.408,5.408,0,0,0-.507.548c-.211.243-.477.558-.807.962-.114.135-.249.291-.416.458a6.537,6.537,0,0,1-.514.486,5.213,5.213,0,0,1-.535.416,1.785,1.785,0,0,1-.494.247c-.6-.116-.892-.6-.892-1.464a7.9,7.9,0,0,1,.084-.964c.031-.188.061-.389.1-.6a6.228,6.228,0,0,1,.136-.633,5.852,5.852,0,0,1,.192-.625,4.288,4.288,0,0,1,.262-.566.851.851,0,0,1,.192-.231.988.988,0,0,1,.216-.126.918.918,0,0,1,.233-.052,2.029,2.029,0,0,1,.242-.013.5.5,0,0,1,.2.043.637.637,0,0,1,.18.129.661.661,0,0,1,.123.206A.8.8,0,0,1,184,65.1a1.18,1.18,0,0,1-.03.268,2.342,2.342,0,0,1-.076.262c-.031.091-.067.188-.1.288s-.072.219-.11.348c-.025.081-.059.194-.1.326s-.092.273-.134.415-.087.285-.126.423a2.194,2.194,0,0,0-.069.341c.082-.081.183-.188.292-.315s.23-.266.353-.411.247-.3.375-.453.253-.3.384-.436c.163-.181.324-.344.487-.506a3.583,3.583,0,0,1,.508-.41,2.681,2.681,0,0,1,.575-.274,2.388,2.388,0,0,1,.7-.1,1.589,1.589,0,0,1,.754.161,1.179,1.179,0,0,1,.463.446,2.053,2.053,0,0,1,.259.676,6.851,6.851,0,0,1,.134.854c.022.155.047.316.077.484a1.891,1.891,0,0,0,.14.449.94.94,0,0,0,.24.334.525.525,0,0,0,.366.132,1.954,1.954,0,0,0,.716-.151,5.261,5.261,0,0,0,.814-.41,10.488,10.488,0,0,0,.871-.606c.3-.231.6-.476.89-.735.1-.09.187-.174.271-.255s.173-.157.254-.226a1.662,1.662,0,0,1,.237-.16.488.488,0,0,1,.224-.061.616.616,0,0,1,.1.011.279.279,0,0,1,.1.036.205.205,0,0,1,.083.076.226.226,0,0,1,.034.133" transform="translate(-25.397 -9.002)" fill="#fff"/>
        <path id="Path_13" data-name="Path 13" d="M196.564,64.276a.375.375,0,0,1-.034.146c-.027.057-.053.12-.083.188s-.07.134-.1.2a.97.97,0,0,0-.079.185,4.408,4.408,0,0,0-.1,1.139c0,.092,0,.2,0,.339s.009.281.011.428.007.292.011.437.009.265.009.359c0,.66-.025,1.272-.076,1.829a6.87,6.87,0,0,1-.274,1.484,2.838,2.838,0,0,1-.314.707,2.383,2.383,0,0,1-.485.562,2.167,2.167,0,0,1-.657.37,2.471,2.471,0,0,1-.839.131,2.806,2.806,0,0,1-.8-.12,3.823,3.823,0,0,1-.722-.288,2.361,2.361,0,0,1-.514-.348c-.13-.12-.193-.22-.193-.294a.286.286,0,0,1,.088-.243.473.473,0,0,1,.279-.065.838.838,0,0,1,.219.052l.392.1c.149.04.317.074.5.1a2.7,2.7,0,0,0,.537.049.792.792,0,0,0,.444-.115,1.179,1.179,0,0,0,.326-.321,1.959,1.959,0,0,0,.217-.482,4.271,4.271,0,0,0,.138-.588c.029-.211.052-.431.065-.656s.015-.45.015-.676c0-.1,0-.225,0-.368s0-.291-.009-.448-.014-.32-.019-.485-.008-.323-.015-.471-.005-.288-.009-.415,0-.227,0-.3a4.8,4.8,0,0,1,.32-2.007,1.074,1.074,0,0,1,1.027-.658.894.894,0,0,1,.527.14.463.463,0,0,1,.2.4m1.234-3.227a.345.345,0,0,1-.051.113,1.58,1.58,0,0,1-.127.2c-.051.069-.109.148-.171.222s-.129.145-.192.207a1.615,1.615,0,0,1-.182.161.263.263,0,0,1-.141.063,1.491,1.491,0,0,1-.339-.033.681.681,0,0,1-.232-.1.856.856,0,0,1-.191-.171c-.058-.072-.122-.16-.2-.262a1.545,1.545,0,0,1-.156-.237.378.378,0,0,1-.052-.17.431.431,0,0,1,.094-.247.975.975,0,0,1,.232-.223,1.061,1.061,0,0,1,.3-.169.773.773,0,0,1,.316-.067,1.546,1.546,0,0,1,.379.047,1.4,1.4,0,0,1,.354.15.9.9,0,0,1,.258.225.472.472,0,0,1,.1.3" transform="translate(-26.728 -8.428)" fill="#fff"/>
        <path id="Path_14" data-name="Path 14" d="M209.437,65.279a.558.558,0,0,1-.053.232,1.391,1.391,0,0,1-.144.232,1.874,1.874,0,0,1-.212.209,1.36,1.36,0,0,1-.238.164,2.822,2.822,0,0,1-.742.252,5.107,5.107,0,0,1-1.173.112,3.513,3.513,0,0,1-.422-.025c-.148-.015-.3-.04-.453-.067s-.305-.063-.457-.107a3.943,3.943,0,0,1-.427-.144.658.658,0,0,1,.071.15,1.015,1.015,0,0,1,.038.2c.006.065.011.133.015.194s0,.116,0,.149a2.071,2.071,0,0,1-.156.773,3.734,3.734,0,0,1-.422.739,4.539,4.539,0,0,1-.6.649,4.786,4.786,0,0,1-.682.521,3.215,3.215,0,0,1-.612.3,4.789,4.789,0,0,1-.709.212,6.562,6.562,0,0,1-.765.131,7.869,7.869,0,0,1-.8.041,1.458,1.458,0,0,1-.638-.142,1.931,1.931,0,0,1-.535-.36,1.785,1.785,0,0,1-.369-.5,1.181,1.181,0,0,1-.136-.549,2.967,2.967,0,0,1,.149-.938,4.651,4.651,0,0,1,.408-.865,6.7,6.7,0,0,1,.6-.817c.23-.271.468-.538.717-.8a4.493,4.493,0,0,1,.5-.447,4.211,4.211,0,0,1,.6-.392,3.8,3.8,0,0,1,.637-.276,2.018,2.018,0,0,1,.619-.1,1.913,1.913,0,0,1,.427.043,1.51,1.51,0,0,1,.334.138,1.892,1.892,0,0,1,.3.218c.1.083.2.179.3.284l.149.141a1.573,1.573,0,0,0,.311.145,5.41,5.41,0,0,0,.6.187c.232.064.474.12.726.17a4.09,4.09,0,0,0,.7.072c.212,0,.41,0,.6-.005a4.651,4.651,0,0,0,.57-.048,4.221,4.221,0,0,0,.6-.123,6.141,6.141,0,0,0,.7-.225.439.439,0,0,1,.057.139.994.994,0,0,1,.016.133m-5.5,1.366a2.761,2.761,0,0,0-.018-.317,1.02,1.02,0,0,0-.072-.3.811.811,0,0,0-.156-.25.55.55,0,0,0-.266-.144,2.771,2.771,0,0,1-.4-.12,1.41,1.41,0,0,1-.249-.117.505.505,0,0,1-.127-.089c-.027-.026-.042-.037-.049-.037a.293.293,0,0,0-.159.083,2.131,2.131,0,0,0-.229.207c-.081.085-.169.176-.255.274s-.169.187-.25.274c-.1.1-.192.2-.282.305s-.169.2-.252.311-.166.216-.246.335-.164.247-.248.387a1.432,1.432,0,0,0-.171.476,2.757,2.757,0,0,0-.057.531.9.9,0,0,0,.027.211.682.682,0,0,0,.085.19.436.436,0,0,0,.377.191,4.74,4.74,0,0,0,.545-.026,1.779,1.779,0,0,0,.41-.1,2.431,2.431,0,0,0,.388-.188l.471-.293a2.1,2.1,0,0,0,.256-.2,5.554,5.554,0,0,0,.5-.517c.081-.092.154-.183.22-.273a.57.57,0,0,0,.1-.192,2.449,2.449,0,0,0,.066-.239c.015-.082.025-.156.033-.222s.01-.123.01-.148Z" transform="translate(-27.776 -8.942)" fill="#fff"/>
        <path id="Path_15" data-name="Path 15" d="M216.544,64.969c0,.089-.008.212-.021.373s-.03.329-.046.506-.035.349-.047.515-.027.305-.033.414c-.016.256-.04.524-.078.8s-.077.563-.125.845-.11.557-.176.832-.133.545-.2.793c-.058.206-.124.407-.2.616s-.163.413-.255.613-.194.393-.3.582a4.616,4.616,0,0,1-.341.518,2.53,2.53,0,0,1-2.142.992,5.191,5.191,0,0,1-2.344-.543,4.94,4.94,0,0,1-.583-.329,2.507,2.507,0,0,1-.432-.363.525.525,0,0,1-.171-.347,1.3,1.3,0,0,1,.02-.223.539.539,0,0,1,.077-.2.44.44,0,0,1,.154-.151.481.481,0,0,1,.251-.057.444.444,0,0,1,.2.045.731.731,0,0,1,.16.1,3.48,3.48,0,0,0,.554.415,3.073,3.073,0,0,0,.6.288,3.639,3.639,0,0,0,.675.163,5.247,5.247,0,0,0,.767.054.836.836,0,0,0,.446-.128,1.764,1.764,0,0,0,.4-.334,3.079,3.079,0,0,0,.342-.477,4.012,4.012,0,0,0,.285-.567,4.671,4.671,0,0,0,.225-.6,5.673,5.673,0,0,0,.16-.57,5.3,5.3,0,0,0,.121-.623c.029-.206.058-.431.087-.672-.147.1-.316.216-.508.331s-.391.225-.6.337-.428.219-.652.317-.446.192-.665.269a5.126,5.126,0,0,1-.637.183,2.506,2.506,0,0,1-.551.071,1.609,1.609,0,0,1-.7-.144,1.448,1.448,0,0,1-.48-.369,1.5,1.5,0,0,1-.284-.517,1.9,1.9,0,0,1-.093-.588,3.756,3.756,0,0,1,.034-.46c.024-.169.056-.343.091-.522s.076-.346.124-.514a4.61,4.61,0,0,1,.139-.445c.009-.024.033-.076.064-.166s.069-.193.1-.3.076-.219.111-.315.059-.163.07-.194a3.568,3.568,0,0,1,.172-.379,1.1,1.1,0,0,1,.217-.279.85.85,0,0,1,.313-.169,1.509,1.509,0,0,1,.453-.059.808.808,0,0,1,.342.07.539.539,0,0,1,.234.212.647.647,0,0,1,.1.262,1.768,1.768,0,0,1,.015.245.619.619,0,0,1-.077.2c-.052.1-.111.2-.179.326s-.128.227-.19.328a2.054,2.054,0,0,0-.113.2c-.143.3-.258.561-.351.788a1.919,1.919,0,0,0-.139.715,1.23,1.23,0,0,0,.043.323,1.315,1.315,0,0,0,.106.262.607.607,0,0,0,.146.168.3.3,0,0,0,.168.062,2.356,2.356,0,0,0,.55-.076,4.9,4.9,0,0,0,.659-.212,7.467,7.467,0,0,0,.691-.327,5,5,0,0,0,.637-.409,3.54,3.54,0,0,0,.5-.477,1.332,1.332,0,0,0,.284-.5,1.241,1.241,0,0,0,.032-.193c.006-.086.012-.186.019-.3s.009-.232.012-.356.013-.252.022-.366.021-.225.033-.317a1.284,1.284,0,0,1,.043-.228,1.143,1.143,0,0,1,.321-.5.753.753,0,0,1,.52-.169,1.443,1.443,0,0,1,.422.052.536.536,0,0,1,.252.169.581.581,0,0,1,.118.273,2.31,2.31,0,0,1,.033.4" transform="translate(-29.205 -8.951)" fill="#fff"/>
        <path id="Path_16" data-name="Path 16" d="M233.933,64.969c0,.089-.006.212-.021.373s-.027.329-.046.506-.033.349-.049.515-.028.305-.034.414c-.014.256-.039.524-.074.8s-.078.563-.126.845-.108.557-.171.832-.139.545-.208.793c-.056.206-.122.407-.2.616s-.16.413-.251.613-.193.393-.3.582a4.613,4.613,0,0,1-.339.518,2.531,2.531,0,0,1-2.142.992,5.545,5.545,0,0,1-1.724-.283,5.314,5.314,0,0,1-.619-.26,4.471,4.471,0,0,1-.585-.329,2.591,2.591,0,0,1-.434-.363.533.533,0,0,1-.171-.347,1.5,1.5,0,0,1,.022-.223.527.527,0,0,1,.08-.2.425.425,0,0,1,.149-.151.5.5,0,0,1,.257-.057.421.421,0,0,1,.2.045.622.622,0,0,1,.159.1,3.7,3.7,0,0,0,.557.415,2.988,2.988,0,0,0,.6.288,3.636,3.636,0,0,0,.672.163,5.266,5.266,0,0,0,.77.054.857.857,0,0,0,.447-.128,1.667,1.667,0,0,0,.394-.334,3.043,3.043,0,0,0,.347-.477,5.378,5.378,0,0,0,.287-.567,6.384,6.384,0,0,0,.221-.6c.065-.2.117-.389.16-.57.052-.209.089-.414.12-.623s.059-.431.086-.672c-.145.1-.317.216-.508.331s-.395.225-.6.337-.431.219-.652.317-.446.192-.667.269a5.2,5.2,0,0,1-.636.183,2.512,2.512,0,0,1-.551.071,1.588,1.588,0,0,1-.7-.144,1.439,1.439,0,0,1-.768-.886,1.906,1.906,0,0,1-.094-.588,3.789,3.789,0,0,1,.035-.46c.024-.169.056-.343.089-.522s.077-.346.126-.514.093-.317.141-.445c.01-.024.031-.076.062-.166s.07-.193.108-.3.074-.219.109-.315.058-.163.065-.194a3.73,3.73,0,0,1,.175-.379,1.068,1.068,0,0,1,.219-.279.825.825,0,0,1,.311-.169,1.538,1.538,0,0,1,.455-.059.787.787,0,0,1,.339.07.516.516,0,0,1,.236.212.627.627,0,0,1,.1.262,2.1,2.1,0,0,1,.013.245.621.621,0,0,1-.076.2c-.053.1-.108.2-.178.326s-.131.227-.193.328a1.9,1.9,0,0,0-.111.2c-.143.3-.262.561-.351.788a1.9,1.9,0,0,0-.141.715,1.071,1.071,0,0,0,.045.323,1.176,1.176,0,0,0,.106.262.534.534,0,0,0,.146.168.29.29,0,0,0,.167.062,2.4,2.4,0,0,0,.551-.076,5.275,5.275,0,0,0,.659-.212c.225-.095.457-.2.691-.327a5.426,5.426,0,0,0,.635-.409,3.374,3.374,0,0,0,.506-.477,1.331,1.331,0,0,0,.284-.5.989.989,0,0,0,.032-.193c.007-.086.009-.186.016-.3s.012-.232.016-.356.012-.252.022-.366.019-.225.031-.317a.861.861,0,0,1,.044-.228,1.165,1.165,0,0,1,.319-.5.755.755,0,0,1,.52-.169,1.422,1.422,0,0,1,.422.052.514.514,0,0,1,.253.169.569.569,0,0,1,.122.273,2.255,2.255,0,0,1,.029.4" transform="translate(-31.634 -8.951)" fill="#fff"/>
        <path id="Path_17" data-name="Path 17" d="M247.244,65.279a.577.577,0,0,1-.055.232,1.037,1.037,0,0,1-.147.232,2.022,2.022,0,0,1-.2.209,1.449,1.449,0,0,1-.242.164,2.8,2.8,0,0,1-.742.252,5.112,5.112,0,0,1-1.173.112,3.425,3.425,0,0,1-.42-.025c-.151-.015-.3-.04-.458-.067s-.3-.063-.45-.107a3.446,3.446,0,0,1-.427-.144.7.7,0,0,1,.067.15,1.016,1.016,0,0,1,.037.2,1.731,1.731,0,0,1,.017.194c0,.066,0,.116,0,.149a2.04,2.04,0,0,1-.157.773,3.563,3.563,0,0,1-.421.739,4.565,4.565,0,0,1-.6.649,5.043,5.043,0,0,1-.682.521,3.309,3.309,0,0,1-.613.3,4.926,4.926,0,0,1-.707.212,6.638,6.638,0,0,1-.767.131,7.847,7.847,0,0,1-.8.041,1.454,1.454,0,0,1-.635-.142,1.917,1.917,0,0,1-.539-.36,1.773,1.773,0,0,1-.366-.5,1.175,1.175,0,0,1-.139-.549,2.922,2.922,0,0,1,.153-.938,4.3,4.3,0,0,1,.409-.865,6.407,6.407,0,0,1,.592-.817c.227-.271.464-.538.716-.8a4.846,4.846,0,0,1,.506-.447,4.521,4.521,0,0,1,.6-.392,4.01,4.01,0,0,1,.642-.276,2.01,2.01,0,0,1,.619-.1,1.949,1.949,0,0,1,.429.043,1.613,1.613,0,0,1,.333.138,2.113,2.113,0,0,1,.3.218c.094.083.193.179.3.284l.146.141a1.773,1.773,0,0,0,.31.145,5.985,5.985,0,0,0,.6.187c.228.064.473.12.729.17a4.038,4.038,0,0,0,.7.072c.212,0,.415,0,.6-.005a4.513,4.513,0,0,0,.566-.048,4.239,4.239,0,0,0,.6-.123,6.38,6.38,0,0,0,.7-.225.421.421,0,0,1,.053.139.677.677,0,0,1,.019.133m-5.505,1.366c0-.1-.008-.2-.018-.317a1.209,1.209,0,0,0-.073-.3.8.8,0,0,0-.157-.25.519.519,0,0,0-.263-.144,2.84,2.84,0,0,1-.4-.12,1.545,1.545,0,0,1-.252-.117.728.728,0,0,1-.128-.089c-.021-.026-.037-.037-.046-.037a.281.281,0,0,0-.159.083,2.133,2.133,0,0,0-.231.207c-.079.085-.171.176-.255.274l-.25.274q-.148.155-.277.305a3.707,3.707,0,0,0-.255.311c-.085.1-.166.216-.249.335s-.159.247-.247.387a1.556,1.556,0,0,0-.171.476,2.623,2.623,0,0,0-.056.531.749.749,0,0,0,.029.211.56.56,0,0,0,.085.19.415.415,0,0,0,.146.138.436.436,0,0,0,.229.053,4.744,4.744,0,0,0,.545-.026,1.816,1.816,0,0,0,.415-.1,2.592,2.592,0,0,0,.385-.188l.471-.293a1.88,1.88,0,0,0,.257-.2c.083-.072.172-.156.257-.243s.164-.176.243-.274.154-.183.223-.273a.6.6,0,0,0,.1-.192,1.743,1.743,0,0,0,.062-.239c.015-.082.028-.156.035-.222s.011-.123.011-.148Z" transform="translate(-33.057 -8.942)" fill="#fff"/>
        <path id="Path_18" data-name="Path 18" d="M259.756,65.476a1.351,1.351,0,0,1-.28.748,4.656,4.656,0,0,1-.73.823,10.415,10.415,0,0,1-1.007.8,12.158,12.158,0,0,1-1.114.69,8.4,8.4,0,0,1-1.053.477,2.412,2.412,0,0,1-.822.182,1.641,1.641,0,0,1-.768-.163,1.544,1.544,0,0,1-.524-.443,2.29,2.29,0,0,1-.333-.632,4.709,4.709,0,0,1-.177-.73,3.363,3.363,0,0,1-.28.471c-.123.171-.25.341-.382.506s-.281.324-.418.471-.272.275-.385.374a6.3,6.3,0,0,1-.55.439,3.872,3.872,0,0,1-.637.362,4.054,4.054,0,0,1-.719.255,3.408,3.408,0,0,1-.791.093,1.415,1.415,0,0,1-.613-.126,1.312,1.312,0,0,1-.707-.78,1.5,1.5,0,0,1-.091-.518,2.413,2.413,0,0,1,.05-.473c.029-.168.063-.332.1-.5s.077-.33.113-.5a4.574,4.574,0,0,0,.072-.477c.01-.116.02-.239.03-.371s.019-.273.025-.405.026-.27.042-.409a3.263,3.263,0,0,1,.063-.379,1.048,1.048,0,0,1,.077-.241.7.7,0,0,1,.154-.2.741.741,0,0,1,.249-.139,1.168,1.168,0,0,1,.373-.05.766.766,0,0,1,.63.225,1.094,1.094,0,0,1,.18.688,3.063,3.063,0,0,1-.019.321c-.016.12-.034.249-.059.38s-.052.262-.082.4-.063.258-.1.383c-.082.266-.154.531-.228.789a2.725,2.725,0,0,0-.1.689.611.611,0,0,0,.082.322.241.241,0,0,0,.2.127,1.452,1.452,0,0,0,.633-.162,3.728,3.728,0,0,0,.645-.4,7.25,7.25,0,0,0,.591-.523c.188-.189.345-.359.477-.518a3.752,3.752,0,0,0,.372-.541c.127-.212.248-.436.371-.676s.237-.47.354-.7.212-.44.3-.617a1.682,1.682,0,0,1,.425-.551.733.733,0,0,1,.469-.2.7.7,0,0,1,.4.091.38.38,0,0,1,.129.332,1.979,1.979,0,0,1-.03.3c-.019.134-.038.274-.061.422s-.045.289-.065.423a2.155,2.155,0,0,0-.031.306c0,.068,0,.143.008.239s0,.188.007.284.013.2.025.293.027.17.043.236a2.03,2.03,0,0,0,.088.264,2.128,2.128,0,0,0,.162.318,1.21,1.21,0,0,0,.21.268.325.325,0,0,0,.24.114,2.139,2.139,0,0,0,.781-.167,5.357,5.357,0,0,0,.849-.425,10.277,10.277,0,0,0,.87-.594c.293-.225.571-.446.847-.668.112-.093.227-.188.335-.283s.215-.18.323-.258.2-.132.291-.182a.512.512,0,0,1,.237-.074.252.252,0,0,1,.178.061.18.18,0,0,1,.068.11" transform="translate(-34.559 -8.95)" fill="#fff"/>
        <path id="Path_19" data-name="Path 19" d="M267.073,65.562a.623.623,0,0,1-.025.144.8.8,0,0,1-.087.182.575.575,0,0,1-.146.157.34.34,0,0,1-.216.072l-.12,0c-.062,0-.128,0-.2-.007s-.139-.007-.2-.009-.109-.006-.137-.006a3.481,3.481,0,0,0-2.048.73,3.606,3.606,0,0,0-.409.358,5.425,5.425,0,0,0-.41.45,5.744,5.744,0,0,0-.387.527,4.74,4.74,0,0,0-.333.58c-.082.169-.159.337-.235.514a5.113,5.113,0,0,0-.2.554,2.525,2.525,0,0,0-.074.277,1.667,1.667,0,0,1-.083.272.319.319,0,0,1-.12.168.563.563,0,0,1-.2.115,1.492,1.492,0,0,1-.238.071,2.221,2.221,0,0,1-.245.031.628.628,0,0,1-.623-.352,2.515,2.515,0,0,1-.17-1.049c0-.106,0-.206,0-.3s.008-.186.014-.282.016-.194.027-.293.021-.222.034-.349c.021-.191.046-.417.079-.678s.069-.528.1-.795.084-.528.126-.78a6.271,6.271,0,0,1,.139-.637.985.985,0,0,1,.287-.5.849.849,0,0,1,.59-.182.533.533,0,0,1,.231.053.854.854,0,0,1,.208.121.891.891,0,0,1,.158.159.409.409,0,0,1,.069.15l.007.11a2.724,2.724,0,0,1-.038.4c-.021.146-.053.313-.093.483s-.082.347-.13.526-.089.341-.133.5-.08.311-.119.444-.063.25-.083.336c.166-.3.342-.588.531-.862a6.43,6.43,0,0,1,.612-.771,5.089,5.089,0,0,1,.7-.632,3.668,3.668,0,0,1,.809-.451,5.051,5.051,0,0,1,.628-.2,2.082,2.082,0,0,1,.508-.069,3.355,3.355,0,0,1,.558.05,2.567,2.567,0,0,1,.52.14,1.455,1.455,0,0,1,.395.225.4.4,0,0,1,.155.308" transform="translate(-36.347 -9.016)" fill="#fff"/>
        <path id="Path_20" data-name="Path 20" d="M290.579,65.417a.509.509,0,0,1-.094.3,1.141,1.141,0,0,1-.233.268,2.239,2.239,0,0,1-.322.226,3.557,3.557,0,0,1-.359.178,4.071,4.071,0,0,1-.829.262,4.688,4.688,0,0,1-1.056.1,4.152,4.152,0,0,1-.9-.093,6.874,6.874,0,0,1-.727-.192,5.009,5.009,0,0,0-.432.769c-.136.3-.279.614-.419.958-.02.044-.046.114-.086.212s-.08.2-.124.318-.089.242-.139.377-.1.257-.148.377-.089.227-.128.323-.067.171-.082.217a1.221,1.221,0,0,1-.484.611,1.329,1.329,0,0,1-.653.167,1.251,1.251,0,0,1-.694-.2,1.89,1.89,0,0,1-.525-.514,7.251,7.251,0,0,1-.377-.65c-.109-.224-.212-.45-.3-.674s-.169-.452-.246-.679-.136-.437-.194-.644c-.015-.055-.024-.11-.04-.168s-.034-.093-.058-.093-.032.037-.075.11-.085.171-.137.287-.109.239-.169.379-.12.276-.178.413-.11.262-.151.372-.081.194-.1.249q-.077.2-.188.437c-.074.159-.152.319-.242.473a5.2,5.2,0,0,1-.279.449,2.5,2.5,0,0,1-.312.378,1.455,1.455,0,0,1-.336.268.686.686,0,0,1-.352.1,1.1,1.1,0,0,1-.6-.167,1.267,1.267,0,0,1-.4-.4,8.419,8.419,0,0,1-.542-1.119,12.155,12.155,0,0,1-.427-1.271,10.76,10.76,0,0,1-.282-1.281,7.184,7.184,0,0,1-.1-1.169.864.864,0,0,1,.213-.656,1.063,1.063,0,0,1,.724-.2.55.55,0,0,1,.35.114.789.789,0,0,1,.2.3,1.494,1.494,0,0,1,.107.4,4.33,4.33,0,0,1,.043.44c.009.145.015.274.02.4a1.514,1.514,0,0,0,.035.286c.017.147.048.314.088.5s.083.386.131.586.1.4.154.592.1.362.155.513.095.278.132.366.077.14.1.14.061-.034.107-.107.09-.17.153-.3.122-.289.2-.47.169-.388.274-.613.194-.442.29-.649.189-.408.283-.607.187-.4.29-.6.2-.4.323-.613a.855.855,0,0,1,.151-.212,1.29,1.29,0,0,1,.239-.188,1.448,1.448,0,0,1,.279-.138.857.857,0,0,1,.278-.047.578.578,0,0,1,.642.549c.046.324.1.645.178.962s.145.619.231.9.164.549.253.792.173.447.256.625a2.665,2.665,0,0,0,.232.411c.07.1.129.145.182.145s.092-.041.143-.133a2.161,2.161,0,0,0,.171-.344c.064-.142.119-.3.183-.477s.121-.348.176-.519.11-.326.157-.474.091-.268.125-.355c.055-.123.113-.267.175-.428s.136-.328.209-.5.159-.333.249-.5a2.535,2.535,0,0,1,.284-.432,1.42,1.42,0,0,1,.331-.309.662.662,0,0,1,.374-.114,2.453,2.453,0,0,1,.335.041,1,1,0,0,1,.223.081.894.894,0,0,1,.163.12,1.483,1.483,0,0,1,.141.149.776.776,0,0,0,.237.16c.109.053.234.107.359.154s.26.077.386.108a1.532,1.532,0,0,0,.294.04,7.3,7.3,0,0,0,1.028-.074,4.006,4.006,0,0,0,.984-.266c.051-.02.1-.044.17-.072a.435.435,0,0,1,.158-.038.344.344,0,0,1,.052.007.14.14,0,0,1,.062.031.251.251,0,0,1,.049.086.514.514,0,0,1,.021.163" transform="translate(-38.564 -9.042)" fill="#fff"/>
        <path id="Path_21" data-name="Path 21" d="M300.644,65.279a.58.58,0,0,1-.05.232,1.1,1.1,0,0,1-.146.232,1.769,1.769,0,0,1-.208.209,1.19,1.19,0,0,1-.242.164,2.731,2.731,0,0,1-.736.252,5.186,5.186,0,0,1-1.176.112,3.455,3.455,0,0,1-.42-.025c-.152-.015-.3-.04-.454-.067s-.3-.063-.453-.107a3.792,3.792,0,0,1-.428-.144.694.694,0,0,1,.072.15,1.36,1.36,0,0,1,.034.2,1.551,1.551,0,0,1,.017.194v.149a1.932,1.932,0,0,1-.158.773,3.276,3.276,0,0,1-.421.739,4.28,4.28,0,0,1-.6.649,4.923,4.923,0,0,1-.681.521,3.293,3.293,0,0,1-.612.3,5.062,5.062,0,0,1-.71.212,6.656,6.656,0,0,1-.767.131,7.874,7.874,0,0,1-.8.041,1.458,1.458,0,0,1-.638-.142,1.844,1.844,0,0,1-.537-.36,1.723,1.723,0,0,1-.37-.5,1.2,1.2,0,0,1-.139-.549,2.878,2.878,0,0,1,.155-.938,4.68,4.68,0,0,1,.4-.865,7.222,7.222,0,0,1,.6-.817c.229-.271.469-.538.717-.8a5.161,5.161,0,0,1,.5-.447,4.889,4.889,0,0,1,.6-.392,4.035,4.035,0,0,1,.637-.276,2.059,2.059,0,0,1,.621-.1,1.911,1.911,0,0,1,.428.043,1.62,1.62,0,0,1,.334.138,1.97,1.97,0,0,1,.3.218c.093.083.193.179.3.284l.149.141a1.447,1.447,0,0,0,.306.145,5.99,5.99,0,0,0,.6.187c.235.064.475.12.733.17a3.967,3.967,0,0,0,.692.072c.213,0,.414,0,.6-.005a4.6,4.6,0,0,0,.571-.048,4.34,4.34,0,0,0,.6-.123,6.606,6.606,0,0,0,.7-.225.387.387,0,0,1,.054.139.619.619,0,0,1,.015.133m-5.5,1.366a2.941,2.941,0,0,0-.016-.317,1.139,1.139,0,0,0-.074-.3.828.828,0,0,0-.156-.25.535.535,0,0,0-.262-.144,2.827,2.827,0,0,1-.407-.12,1.811,1.811,0,0,1-.249-.117.514.514,0,0,1-.126-.089c-.024-.026-.039-.037-.05-.037a.311.311,0,0,0-.159.083,2.78,2.78,0,0,0-.23.207c-.082.085-.163.176-.255.274s-.168.187-.248.274q-.148.155-.282.305c-.086.1-.169.2-.254.311s-.166.216-.246.335-.164.247-.249.387a1.513,1.513,0,0,0-.167.476,2.57,2.57,0,0,0-.058.531.691.691,0,0,0,.028.211.707.707,0,0,0,.084.19.406.406,0,0,0,.148.138.424.424,0,0,0,.228.053,4.707,4.707,0,0,0,.544-.026,1.867,1.867,0,0,0,.416-.1,2.309,2.309,0,0,0,.382-.188l.475-.293a1.962,1.962,0,0,0,.253-.2c.085-.072.17-.156.255-.243a3.164,3.164,0,0,0,.249-.274c.081-.092.156-.183.22-.273a.57.57,0,0,0,.1-.192,2.2,2.2,0,0,0,.061-.239,1.325,1.325,0,0,0,.037-.222c.007-.069.011-.123.011-.148Z" transform="translate(-40.518 -8.942)" fill="#fff"/>
        <path id="Path_22" data-name="Path 22" d="M307.547,65.562a.622.622,0,0,1-.032.144.652.652,0,0,1-.086.182.5.5,0,0,1-.143.157.334.334,0,0,1-.215.072l-.122,0c-.063,0-.131,0-.2-.007s-.135-.007-.2-.009-.1-.006-.133-.006a3.472,3.472,0,0,0-2.047.73,3.26,3.26,0,0,0-.407.358,4.463,4.463,0,0,0-.414.45,5.172,5.172,0,0,0-.388.527,4.854,4.854,0,0,0-.333.58c-.077.169-.16.337-.231.514a4.479,4.479,0,0,0-.2.554c-.032.1-.056.2-.073.277a1.474,1.474,0,0,1-.085.272.329.329,0,0,1-.118.168.647.647,0,0,1-.2.115,1.557,1.557,0,0,1-.237.071,2.23,2.23,0,0,1-.249.031.631.631,0,0,1-.62-.352,2.527,2.527,0,0,1-.171-1.049v-.3c.005-.095.01-.186.017-.282s.016-.194.028-.293.022-.222.036-.349c.018-.191.043-.417.071-.678s.072-.528.11-.795.078-.528.124-.78.089-.462.136-.637a1.02,1.02,0,0,1,.291-.5.857.857,0,0,1,.591-.182.567.567,0,0,1,.234.053.966.966,0,0,1,.206.121.775.775,0,0,1,.156.159.362.362,0,0,1,.072.15l.005.11a2.8,2.8,0,0,1-.035.4c-.025.146-.054.313-.093.483s-.085.347-.128.526-.094.341-.135.5-.089.311-.121.444-.064.25-.085.336c.169-.3.346-.588.533-.862a6.517,6.517,0,0,1,.613-.771,5.021,5.021,0,0,1,.7-.632,3.376,3.376,0,0,1,.808-.451,5.336,5.336,0,0,1,.623-.2,2.14,2.14,0,0,1,.512-.069,3.3,3.3,0,0,1,.554.05,2.644,2.644,0,0,1,.528.14,1.489,1.489,0,0,1,.392.225.409.409,0,0,1,.157.308" transform="translate(-42.001 -9.016)" fill="#fff"/>
        <path id="Path_23" data-name="Path 23" d="M319.333,67.237c0,.049-.064.145-.2.293a5.34,5.34,0,0,1-.536.525c-.219.2-.47.407-.759.624a9.122,9.122,0,0,1-.9.6,6.31,6.31,0,0,1-.932.455,2.456,2.456,0,0,1-.87.181,2.5,2.5,0,0,1-.6-.065,3.591,3.591,0,0,1-.528-.177,2.944,2.944,0,0,1-.48-.261c-.156-.1-.3-.2-.445-.31s-.286-.226-.426-.348-.279-.238-.405-.355-.256-.221-.37-.321a3.178,3.178,0,0,0-.323-.254c-.178.148-.321.276-.429.379a1.734,1.734,0,0,0-.262.3.837.837,0,0,0-.132.271,1.3,1.3,0,0,0-.037.333,2.985,2.985,0,0,1-.028.47.693.693,0,0,1-.127.308.466.466,0,0,1-.262.157,1.654,1.654,0,0,1-.448.045,1.521,1.521,0,0,1-.342-.031.362.362,0,0,1-.19-.108.321.321,0,0,1-.089-.187,1.5,1.5,0,0,1-.022-.273,2.243,2.243,0,0,1,.028-.348c.015-.127.032-.26.058-.395s.047-.262.073-.389.052-.243.068-.348c0-.024.015-.085.029-.2s.038-.252.062-.425.052-.359.086-.575.064-.426.1-.644.063-.431.09-.637.059-.4.083-.565.046-.3.061-.407a1.708,1.708,0,0,0,.022-.172c.039-.249.074-.5.109-.758s.071-.51.1-.764.059-.5.083-.742.039-.47.05-.691a.85.85,0,0,1,.064-.3.866.866,0,0,1,.164-.277.779.779,0,0,1,.269-.21.765.765,0,0,1,.374-.084,1.041,1.041,0,0,1,.454.08.637.637,0,0,1,.254.188.576.576,0,0,1,.106.233,1.183,1.183,0,0,1,.022.2,2.055,2.055,0,0,1-.028.3c-.021.128-.04.274-.068.438s-.057.326-.086.5-.07.333-.1.487-.059.283-.081.4-.04.192-.051.236c-.1.471-.172.847-.231,1.132s-.1.5-.139.658c-.048.219-.085.4-.114.545s-.053.27-.071.378-.034.207-.046.289-.037.169-.063.26c.152-.166.313-.336.49-.516s.341-.353.513-.532.334-.343.489-.506.293-.308.405-.44.241-.282.4-.461a4.938,4.938,0,0,1,.535-.5,3.845,3.845,0,0,1,.622-.4,1.51,1.51,0,0,1,.666-.167.837.837,0,0,1,.339.062.585.585,0,0,1,.213.151.519.519,0,0,1,.111.2.667.667,0,0,1,.032.2.563.563,0,0,1-.158.339,2.707,2.707,0,0,1-.4.383c-.154.134-.317.265-.5.393s-.329.249-.464.366c-.355.289-.662.557-.927.793s-.505.471-.727.7a3.439,3.439,0,0,1,.4.275c.142.114.289.231.44.355s.313.24.471.363a5.106,5.106,0,0,0,.475.32c.169.1.3.171.41.229a2.13,2.13,0,0,0,.286.121,1.053,1.053,0,0,0,.251.048c.078.007.171.011.274.011a1.57,1.57,0,0,0,.445-.075,3.652,3.652,0,0,0,.505-.2c.167-.081.346-.169.517-.271s.35-.206.517-.314.313-.217.453-.323.267-.2.372-.286.223-.173.3-.236a.412.412,0,0,1,.262-.094.3.3,0,0,1,.178.057.721.721,0,0,1,.112.12.467.467,0,0,1,.059.129c.011.04.018.063.018.068" transform="translate(-43.196 -8.461)" fill="#fff"/>
      </g>
    </g>
  </g>
</svg>
