<?xml version="1.0" encoding="UTF-8"?>
<svg xmlns="http://www.w3.org/2000/svg" width="220" height="41.154176" version="1.1" viewBox="0 0 220 41.154176">
  <defs>
    <style>
      .cls-1 {
        fill: #05171d;
      }

      .cls-2 {
        fill: #fff;
      }

      .cls-3 {
        fill: #009ee2;
      }
    </style>
  </defs>
  <!-- Generator: Adobe Illustrator 28.7.1, SVG Export Plug-In . SVG Version: 1.2.0 Build 142)  -->
  <g>
    <g id="Ebene_1">
      <g>
        <path class="cls-2" d="M0,20.5778667C0,9.2140211,9.2140211,0,20.577843,0c11.3685116,0,20.5778904,9.2140211,20.5778904,20.5778667s-9.2093788,20.5763094-20.5778904,20.5763094C9.2140211,41.154176,0,31.9417123,0,20.5778667"/>
        <path class="cls-3" d="M.0015632,20.5778667C.0015632,9.2140211,9.2171475,0,20.5794062,0c1.1067569,0,2.1933341.0822702,3.2503996.253016-9.2140211,4.2686216-15.1761266,11.065822-15.1761266,18.7260598,0,8.895806,8.0389564,16.6274424,19.8700378,20.5856235-2.4416486,1.024463-5.1285325,1.5894768-7.9443108,1.5894768C9.2171475,41.154176.0015632,31.9417123.0015632,20.5778667"/>
        <path class="cls-3" d="M36.061781,7.0177796c3.1727599,3.622895,5.0959418,8.3649461,5.0959418,13.5602469,0,7.2845981-3.7858721,13.6844219-9.4964894,17.3430222-5.3241714-3.8603854-8.5062158-8.7638682-8.5062158-14.1004209,0-6.6869878,4.9655791-12.6723758,12.9067634-16.8028482"/>
        <polygon class="cls-1" points="61.1469914 4.5810931 49.7474523 4.5810931 57.1515536 36.2775522 70.5037862 36.2775522 75.5423154 15.5724078 75.6339293 15.5724078 80.9472055 36.2775522 94.0278175 36.2775522 101.6585377 4.5810931 90.8053663 4.5810931 86.8984159 24.8376419 86.8068494 24.8376419 81.8568077 4.5810931 70.1840375 4.5810931 65.0974275 24.8376419 65.00894 24.8376419 61.1469914 4.5810931"/>
        <rect class="cls-1" x="104.1359033" y="4.5824846" width="12.172573" height="31.6964591"/>
        <polygon class="cls-1" points="153.5831235 4.5810931 119.9758757 4.5810931 119.9758757 13.9363602 130.6939947 13.9363602 130.6939947 36.2775522 142.8649571 36.2775522 142.8649571 13.9363602 153.5831235 13.9363602 153.5831235 4.5810931"/>
        <polygon class="cls-1" points="188.9944172 4.5810931 155.3871694 4.5810931 155.3871694 13.9363602 166.1053358 13.9363602 166.1053358 36.2775522 178.2762508 36.2775522 178.2762508 13.9363602 188.9944172 13.9363602 188.9944172 4.5810931"/>
        <polygon class="cls-1" points="192.2058312 36.278322 220 36.278322 220 28.6491295 204.1005781 28.6491295 204.1005781 24.3354943 218.997268 24.3354943 218.997268 16.7063019 204.1005781 16.7063019 204.1005781 12.209504 219.6802513 12.209504 219.6802513 4.5818688 192.2058312 4.5818688 192.2058312 36.278322"/>
      </g>
    </g>
  </g>
</svg>