<svg width="40" height="40" viewBox="0 0 40 40" fill="none" xmlns="http://www.w3.org/2000/svg">
<path d="M39.9994 19.9991C39.9993 16.0437 38.8264 12.177 36.6289 8.8882C34.4313 5.59936 31.3079 3.03603 27.6535 1.52234C23.9991 0.0086604 19.978 -0.387384 16.0985 0.384291C12.2191 1.15597 8.65555 3.0607 5.85861 5.85764C3.06168 8.65457 1.15694 12.2181 0.385268 16.0975C-0.386408 19.977 0.00963696 23.9982 1.52332 27.6525C3.037 31.3069 5.60034 34.4303 8.88918 36.6279C12.178 38.8254 16.0446 39.9984 20.0001 39.9984C22.6264 39.9984 25.2271 39.4811 27.6535 38.4761C30.0799 37.471 32.2846 35.9979 34.1417 34.1408C35.9988 32.2837 37.472 30.079 38.477 27.6525C39.4821 25.2261 39.9994 22.6255 39.9994 19.9991Z" fill="#56AF31"/>
<path fill-rule="evenodd" clip-rule="evenodd" d="M20.0004 3.11981C29.2951 3.11981 36.8804 10.705 36.8804 19.9998C36.8804 29.3078 29.2951 36.8927 20.0004 36.8927C10.6924 36.8927 3.10719 29.3078 3.10719 19.9998C3.10719 10.705 10.6924 3.11981 20.0004 3.11981ZM20.013 1.30859C30.2958 1.30859 38.6914 9.70412 38.6914 19.987C38.6914 30.2953 30.2958 38.6911 20.013 38.6911C9.70473 38.6911 1.3092 30.2953 1.3092 19.987C1.3092 9.70412 9.70473 1.30859 20.013 1.30859Z" fill="#13100D"/>
<path fill-rule="evenodd" clip-rule="evenodd" d="M20.0015 13.4664L21.9624 5.73587L23.372 6.67132L20.9445 16.1058L23.4211 25.3177V6.70381L25.0631 7.7936L25.0761 13.578L26.3501 8.64761L27.7598 9.58321L25.962 16.5491L28.0241 23.7264L26.4393 24.2742L25.0368 19.3646V24.7591L21.8 25.8782L20.0001 19.3646L19.9999 26.5005L18.3505 25.9326V5.74322L20.0001 4.64844L20.0015 13.4664Z" fill="#13100D"/>
<path fill-rule="evenodd" clip-rule="evenodd" d="M17.3857 24.573C17.3857 25.1543 16.8711 25.412 16.2861 25.2206C15.5903 24.9931 14.1167 24.4855 13.2915 24.1894C12.9847 24.0794 12.6412 23.5013 12.6412 22.7321V9.53291L14.4267 8.34801V22.7568C14.4318 23.0202 14.4267 23.1432 14.6864 23.2416C14.8376 23.3024 14.9918 23.3553 15.1485 23.4C15.2002 23.412 15.2539 23.4123 15.3057 23.4009C15.3576 23.3896 15.4062 23.3668 15.4481 23.3344C15.4901 23.3019 15.5243 23.2605 15.5483 23.2132C15.5722 23.1659 15.5854 23.1138 15.5867 23.0608V7.57823L17.3857 6.38672V24.573Z" fill="#13100D"/>
<path fill-rule="evenodd" clip-rule="evenodd" d="M12.2539 9.78906L10.1255 17.9177L14.6617 29.0867L12.8027 28.4465L9.12225 19.7559L9.1487 22.756L7.44141 22.1682V12.9827L9.08315 11.8932L9.07021 15.324L10.3928 11.0241L12.2539 9.78906Z" fill="#13100D"/>
<path fill-rule="evenodd" clip-rule="evenodd" d="M32.1503 12.5168C32.5391 12.7914 32.4956 13.341 32.4956 13.6058L32.509 20.9889C32.5048 21.5626 32.6044 22.136 31.869 22.3888C31.1131 22.6489 30.0494 23.018 29.2127 23.3072C28.7238 23.4763 28.1698 23.2426 28.1655 22.6306C28.1464 19.8431 28.1749 12.1264 28.1786 11.1579C28.1787 11.0836 28.1884 11.0096 28.2073 10.9378C28.2276 10.8403 28.2676 10.748 28.3247 10.6665C28.4405 10.5489 28.594 10.4758 28.7583 10.4602C28.9226 10.4445 29.0871 10.4873 29.223 10.5809L32.1503 12.5168ZM30.9858 20.7675C30.9858 21.0708 31.0319 21.2798 30.7138 21.3899C30.5385 21.4504 30.3719 21.4976 29.9522 21.652C29.9235 21.6611 29.893 21.6633 29.8632 21.6585C29.8335 21.6536 29.8053 21.6419 29.7809 21.6241C29.7565 21.6064 29.7367 21.5832 29.7229 21.5564C29.7092 21.5295 29.7019 21.4998 29.7017 21.4697C29.6997 20.5506 29.6914 14.6709 29.6891 12.9653C29.689 12.9191 29.7014 12.8737 29.7248 12.834C29.7482 12.7942 29.7818 12.7614 29.8222 12.739C29.8626 12.7166 29.9082 12.7054 29.9543 12.7066C30.0005 12.7078 30.0455 12.7213 30.0846 12.7458C30.1212 12.7686 30.5578 13.0629 30.7555 13.1878C30.8274 13.2307 30.8869 13.2915 30.9282 13.3642C30.9696 13.437 30.9914 13.5192 30.9914 13.6029L30.9858 20.7675Z" fill="#13100D"/>
<path fill-rule="evenodd" clip-rule="evenodd" d="M19.9999 33.9378L14.1805 31.9337V33.3462L19.9999 35.3501L25.8193 33.3382V31.9258L19.9999 33.9378Z" fill="#13100D"/>
<path fill-rule="evenodd" clip-rule="evenodd" d="M19.9999 31.7248L12.1931 29.0364V30.4488L19.9999 33.1373L27.8133 30.4357V29.0234L19.9999 31.7248Z" fill="#13100D"/>
<path fill-rule="evenodd" clip-rule="evenodd" d="M19.9999 27.3013L13.6099 25.1009L14.2768 26.7429L19.9999 28.7138L32.509 24.3891V22.9766L19.9999 27.3013Z" fill="#13100D"/>
<path fill-rule="evenodd" clip-rule="evenodd" d="M10.3534 23.9795L7.44141 22.9766V24.3891L11.0538 25.633L10.3534 23.9795Z" fill="#13100D"/>
<path fill-rule="evenodd" clip-rule="evenodd" d="M11.4501 26.568L7.44141 25.1875V26.5999L12.1505 28.2215L11.4501 26.568Z" fill="#13100D"/>
<path fill-rule="evenodd" clip-rule="evenodd" d="M19.9999 29.5123L14.6543 27.6714L15.3213 29.3135L19.9999 30.9245L32.5082 26.5999V25.1875L19.9999 29.5123Z" fill="#13100D"/>
</svg>
