<svg enable-background="new 0 0 648 193.5" viewBox="0 0 648 193.5" xmlns="http://www.w3.org/2000/svg"><g fill="#0057b8"><path d="m577.4 58.7c-.3-.1-.8-.2-1.3-.2h-.6v2.5h.9c.5 0 1-.1 1.3-.3s.5-.6.5-1-.3-.8-.8-1z"/><path d="m287.1 67.4c-7.4 0-14.9 2.9-20 6.7v21.7c5.3 4 12.1 6.3 19.7 6.3 14.5 0 22.1-6.9 22.1-17.1-.1-10.1-7.6-17.6-21.8-17.6z"/><path d="m646.1 108.3-35.1-83.4-.2-.5c-3.6-7-11.2-11.9-18.7-11.9 0 0-135-12.6-266.8-12.6-131.8.1-269.4 12.7-269.4 12.7-7.4 0-15.1 4.9-18.7 11.9l-.2.4-35.1 83.4c-2.3 4.7-2.5 10.1-.5 14.8 2 4.9 6 8.5 11 9.8l295.4 58.3s11.1 2.4 16.3 2.4 17-2.5 17-2.5l294.2-58.1.3-.1c5-1.4 9.1-5 11-9.9 2-4.7 1.8-10-.5-14.7zm-524.9 8.3c-23.3 0-41.5-13.1-41.5-31.8 0-19.1 18.2-31.9 41.5-31.9 23.6 0 41.6 12.8 41.6 31.9 0 18.7-18 31.8-41.6 31.8zm81.7 0c-12.6 0-27.2-3-36.3-8.6l6.9-13c6.8 5 19.2 8.2 28.8 8.2 12.4 0 18.3-2.7 18.3-6.7 0-4.7-6.4-6-19.3-6.6-19.6-.8-31.8-5-31.8-17.5s14.2-19.6 34.2-19.6c12.8 0 24.4 2.3 33.9 7.3l-7.5 11.9c-6.8-3.6-17.2-5.9-26.7-5.9-11.1 0-16.3 2.3-16.3 6.2 0 3.7 5.6 5.5 19.2 6 18.2.6 33.5 4.9 33.5 17.8 0 13.4-16.2 20.5-36.9 20.5zm88.4-.4c-10.1 0-18.2-.8-24.3-4.3v2.6h-18v-82.8h18v27.9c6.2-4 15.3-6.7 24.1-6.7 21.9 0 36.6 13.6 36.6 31.9 0 18.4-15 31.4-36.4 31.4zm86.6.4c-23.3 0-41.5-13.1-41.5-31.8 0-19.1 18.2-31.9 41.5-31.9 23.6 0 41.6 12.8 41.6 31.9 0 18.7-18 31.8-41.6 31.8zm104.1-45.7c-4.2-1.9-9.4-2.6-14.5-2.6-7.7 0-15.4 2-21.5 5.4v40.8h-18v-59.6h18v2.6c8.7-4.1 16.2-4.3 24.8-4.3 3.7 0 7.6.2 11.1 1.3v16.4zm82.6 43.6h-18v-33.5c0-10-6.8-12.6-16.4-12.6-8.2 0-14.5 1.7-20.7 5.4v40.7h-18v-59.6h18v2.7c8.5-4 16.6-4.6 26.5-4.6 16.8 0 28.7 7.6 28.7 24.4v37.1zm17.7-47.4c-1.5 1.5-3.4 2.2-5.5 2.2-2.2 0-4.1-.8-5.6-2.3s-2.3-3.4-2.3-5.6c0-2.3.8-4.2 2.5-5.8 1.5-1.4 3.4-2.1 5.4-2.1 2.2 0 4 .8 5.6 2.3s2.3 3.4 2.3 5.6c-.1 2.2-.9 4.1-2.4 5.7z"/><path d="m377.8 67.3c-13.8 0-22.5 7-22.5 17.7 0 10.4 8.4 17.3 22.6 17.3 13.9 0 22.6-6.9 22.6-17.3 0-10.7-8.5-17.7-22.7-17.7z"/><path d="m576.7 54.8c-1.8 0-3.4.7-4.7 2s-1.9 2.8-1.9 4.6.6 3.4 1.9 4.7 2.8 1.9 4.6 1.9 3.3-.6 4.6-1.9 1.9-2.9 1.9-4.7-.6-3.3-1.9-4.6c-1.1-1.3-2.7-2-4.5-2zm1.6 11c-.1-.3-.1-.7-.1-1.2s-.1-.9-.1-1.1c-.1-.3-.3-.5-.6-.6-.2-.1-.4-.1-.8-.1h-.5-.5v3.1h-2.3v-8.9h2.4 1.8c.7 0 1.3.2 1.7.5.8.4 1.2 1.1 1.2 2.1 0 .7-.2 1.3-.6 1.6s-.9.5-1.5.6c.6.1 1 .3 1.2.5.5.4.8 1.1.8 2v.7.3c0 .1 0 .2.1.3l.1.2z"/><path d="m121.1 67.3c-13.8 0-22.5 7-22.5 17.7 0 10.4 8.4 17.3 22.6 17.3 13.9 0 22.6-6.9 22.6-17.3 0-10.7-8.5-17.7-22.7-17.7z"/></g></svg>