<?xml version="1.0" encoding="utf-8"?>
<!-- Generator: Adobe Illustrator 24.0.1, SVG Export Plug-In . SVG Version: 6.00 Build 0)  -->
<svg version="1.1" id="Ebene_1" xmlns="http://www.w3.org/2000/svg" xmlns:xlink="http://www.w3.org/1999/xlink" x="0px" y="0px"
	 viewBox="0 0 110.5 37.4" style="enable-background:new 0 0 110.5 37.4;" xml:space="preserve">
<style type="text/css">
	.st0{fill:#002641;}
</style>
<g>
	<path class="st0" d="M21.4,22.7c-3.2,0-5.6-1.5-6.5-2.4c-0.9,0.9-3.2,2.4-6.5,2.4c-7,0-8.5-2.7-8.5-6.3V0h5v15.8
		C5,18.4,6,19,8.7,19c2.6,0,3.7-0.7,3.7-3.2V0h5v15.8c0,2.5,1.1,3.2,3.7,3.2c2.7,0,3.7-0.7,3.7-3.2V0h5v16.4
		C29.9,20,28.4,22.7,21.4,22.7z"/>
</g>
<g>
	<path class="st0" d="M33.2,22.3V0h4.9v22.3H33.2z"/>
</g>
<g>
	<path class="st0" d="M41.5,22.3V0h4.9v18.4H58v3.8H41.5z"/>
</g>
<g>
	<path class="st0" d="M73.3,16.2h-7.5v6h-5V0h12.4c5.6,0,7.5,2.8,7.5,6.1v3.9C80.8,13.5,78.9,16.2,73.3,16.2z M75.8,6.9
		c0-2.5-0.8-3.5-3.7-3.5h-6.2v9.4H72c2.9,0,3.7-1,3.7-3.5V6.9z"/>
</g>
<g>
	<path class="st0" d="M93.3,22.7c-9.7,0-10-3-10-6.2V0h5v15.6c0,2.3,0.2,3.4,5,3.4c4.8,0,5-1.1,5-3.4V0h5v16.5
		C103.2,19.7,102.9,22.7,93.3,22.7z"/>
</g>
<g>
	<path class="st0" d="M3.9,33.2c-0.4-0.4-0.8-0.5-1.3-0.5c-0.6,0-1,0.2-1,0.5c0,0.4,0.3,0.6,1,0.6c1,0.1,2.3,0.3,2.3,1.7
		c0,1-0.8,1.8-2.3,1.8c-0.9,0-1.7-0.1-2.5-1l0.7-1c0.4,0.4,1.3,0.8,1.9,0.8c0.5,0,1-0.3,1-0.7c0-0.4-0.3-0.5-1.1-0.6
		c-1-0.1-2.3-0.5-2.3-1.7c0-1.3,1.3-1.7,2.3-1.7c0.8,0,1.5,0.2,2.1,0.7L3.9,33.2z"/>
</g>
<g>
	<path class="st0" d="M15.1,31.8h1.3v5.4h-1.3L15,36.4c-0.3,0.6-1.2,0.9-1.8,1c-1.6,0-2.8-1-2.8-2.9c0-1.9,1.2-2.9,2.8-2.8
		c0.7,0,1.4,0.3,1.7,0.9L15.1,31.8z M11.8,34.5c0,1,0.7,1.7,1.6,1.7c2.1,0,2.1-3.3,0-3.3C12.5,32.9,11.8,33.5,11.8,34.5z"/>
</g>
<g>
	<path class="st0" d="M27.1,31.8l1.2,4.1l1.2-4.1H31l-1.9,5.5h-1.6L27,35.7l-0.5-1.8l-0.5,1.8l-0.6,1.6h-1.6L22,31.8h1.5l1.2,4.1
		l1.2-4.1H27.1z"/>
</g>
<g>
	<path class="st0" d="M45.7,29.5v3c0.3-0.6,1.2-0.9,1.8-0.9c1.6,0,2.8,1,2.8,2.8c0,1.8-1.2,2.8-2.8,2.8c-0.7,0-1.3-0.2-1.8-0.9
		l-0.1,0.8h-1.3v-7.7H45.7z M45.8,34.5c0,1,0.7,1.6,1.6,1.6c0.9,0,1.5-0.7,1.5-1.6c0-1-0.7-1.6-1.5-1.6
		C46.5,32.9,45.8,33.6,45.8,34.5z"/>
</g>
<g>
	<path class="st0" d="M57.5,29.5v7.7h-1.3v-7.7H57.5z"/>
</g>
<g>
	<path class="st0" d="M68,31.8h1.3v5.4H68L68,36.4c-0.3,0.6-1.2,0.9-1.8,1c-1.6,0-2.8-1-2.8-2.9c0-1.9,1.2-2.9,2.8-2.8
		c0.7,0,1.4,0.3,1.7,0.9L68,31.8z M64.7,34.5c0,1,0.7,1.7,1.6,1.7c2.1,0,2.1-3.3,0-3.3C65.5,32.9,64.7,33.5,64.7,34.5z"/>
</g>
<g>
	<path class="st0" d="M81,29.5v7.7h-1.3l-0.1-0.8c-0.4,0.7-1.1,0.9-1.8,0.9c-1.6,0-2.8-1.1-2.8-2.8c0-1.9,1.2-2.8,2.8-2.8
		c0.6,0,1.5,0.3,1.8,0.9v-3H81z M76.5,34.5c0,0.9,0.7,1.6,1.5,1.6c0.8,0,1.6-0.6,1.6-1.6c0-0.9-0.7-1.6-1.6-1.6
		C77.2,32.9,76.5,33.5,76.5,34.5z"/>
</g>
<g>
	<path class="st0" d="M88.4,35c0.1,0.7,0.7,1.2,1.6,1.2c0.5,0,1.1-0.2,1.5-0.5l0.9,0.8c-0.6,0.6-1.5,0.9-2.3,0.9c-1.9,0-3-1.2-3-2.9
		c0-1.7,1.1-2.8,2.9-2.8c1.8,0,3,1.1,2.7,3.4H88.4z M91.4,33.9c-0.1-0.7-0.6-1.1-1.4-1.1c-0.7,0-1.3,0.4-1.5,1.1H91.4z"/>
</g>
<g>
	<path class="st0" d="M102.2,33.2c-0.4-0.4-0.8-0.5-1.3-0.5c-0.6,0-1,0.2-1,0.5c0,0.4,0.3,0.6,1,0.6c1,0.1,2.3,0.3,2.3,1.7
		c0,1-0.8,1.8-2.3,1.8c-0.9,0-1.7-0.1-2.5-1l0.7-1c0.4,0.4,1.3,0.8,1.9,0.8c0.5,0,1-0.3,1-0.7c0-0.4-0.3-0.5-1.1-0.6
		c-1-0.1-2.3-0.5-2.3-1.7c0-1.3,1.3-1.7,2.3-1.7c0.8,0,1.5,0.2,2.1,0.7L102.2,33.2z"/>
</g>
<g>
	<path class="st0" d="M107.8,0c1.5,0,2.8,1.1,2.8,2.4s-1.2,2.4-2.8,2.4c-1.5,0-2.8-1.1-2.8-2.4S106.3,0,107.8,0z M107.8,4.4
		c1.1,0,2-0.8,2-1.9c0-1.1-0.9-1.9-2-1.9c-1.1,0-2,0.8-2,1.9C105.8,3.6,106.7,4.4,107.8,4.4z M106.7,1.1h1.2c0.8,0,1.2,0.2,1.2,0.8
		c0,0.5-0.3,0.7-0.8,0.7l0.8,1.2h-0.7l-0.7-1.1h-0.3v1.1h-0.7V1.1z M107.9,2.2c0.3,0,0.5,0,0.5-0.4c0-0.3-0.3-0.3-0.6-0.3h-0.5v0.7
		H107.9z"/>
</g>
</svg>
